<svg width="17" height="16" viewBox="0 0 17 16" fill="none" xmlns="http://www.w3.org/2000/svg">
  <path d="M14.5 11.3336C14.5 12.4381 13.6046 13.3336 12.5 13.3336C11.3954 13.3336 10.5 12.4381 10.5 11.3336C10.5 10.229 11.3954 9.33358 12.5 9.33358C13.6046 9.33358 14.5 10.229 14.5 11.3336ZM14.5 11.3336V7.18348C14.5 6.2734 13.6084 5.63077 12.745 5.91857L8.32339 7.39244C7.23448 7.75542 6.5 8.77445 6.5 9.92227V12.6669M6.5 12.6669C6.5 13.7715 5.60457 14.6669 4.5 14.6669C3.39543 14.6669 2.5 13.7715 2.5 12.6669C2.5 11.5623 3.39543 10.6669 4.5 10.6669C5.60457 10.6669 6.5 11.5623 6.5 12.6669ZM14.5 8.00024V3.18348C14.5 2.2734 13.6084 1.63077 12.745 1.91857L8.32339 3.39244C7.23448 3.75542 6.5 4.77445 6.5 5.92227V9.33358" stroke="#09090B" stroke-linecap="round" stroke-linejoin="round" />
</svg>